<?xml version="1.0" encoding="UTF-8"?> <svg xmlns="http://www.w3.org/2000/svg" xmlns:xlink="http://www.w3.org/1999/xlink" id="Layer_1" viewBox="0 0 198.43 175.09"><defs><style>.cls-1{fill:url(#linear-gradient-3);}.cls-2{fill:url(#linear-gradient-2);}.cls-3{fill:url(#linear-gradient);}.cls-4{fill:#0f80b9;}</style><linearGradient id="linear-gradient" x1="10.52" y1="56.26" x2="190.05" y2="56.26" gradientUnits="userSpaceOnUse"><stop offset="0" stop-color="#289dc7"></stop><stop offset="1" stop-color="#2558a4"></stop></linearGradient><linearGradient id="linear-gradient-2" x1="59.77" y1="-118.92" x2="141.92" y2="-118.92" gradientTransform="translate(-30.58 208.62) rotate(-4.42)" xlink:href="#linear-gradient"></linearGradient><linearGradient id="linear-gradient-3" x1="89.79" y1="49.21" x2="168.62" y2="49.21" gradientTransform="translate(3.59 -26.04) rotate(.56)" xlink:href="#linear-gradient"></linearGradient></defs><path class="cls-4" d="M8.38,158.56l8.99-4.13c1.62,4.45,5.27,8.42,11.1,8.42,4.54,0,8.42-2.35,8.42-7.37,0-4.21-2.51-6.07-8.34-8.42l-3.64-1.38c-7.85-3.16-14.33-7.53-14.33-16.28,0-9.64,8.02-15.63,17.74-15.63s15.87,6.07,18.46,12.15l-8.26,4.62c-2.43-4.62-5.59-6.88-9.8-6.88s-7.21,2.03-7.21,5.83c0,3,1.7,5.34,8.02,7.77l3.89,1.54c10.04,4.05,15.06,8.58,15.06,16.76,0,11.66-10.2,17.33-19.84,17.33s-18.22-5.91-20.25-14.33Z"></path><path class="cls-4" d="M56.65,114.58h20.33c12.47,0,20.57,7.78,20.57,19.52s-8.1,19.52-20.57,19.52h-9.23v18.46h-11.1v-57.5ZM76,143.41c5.99,0,10.28-2.59,10.28-9.31s-4.29-9.31-10.28-9.31h-8.26v18.63h8.26Z"></path><path class="cls-4" d="M106.22,114.58h32.56v10.21h-21.46v13.36h18.06v10.04h-18.06v13.69h22.19v10.2h-33.29v-57.5Z"></path><path class="cls-4" d="M146.47,158.56l8.99-4.13c1.62,4.45,5.26,8.42,11.09,8.42,4.54,0,8.42-2.35,8.42-7.37,0-4.21-2.51-6.07-8.34-8.42l-3.64-1.38c-7.86-3.16-14.34-7.53-14.34-16.28,0-9.64,8.02-15.63,17.74-15.63s15.87,6.07,18.47,12.15l-8.26,4.62c-2.43-4.62-5.59-6.88-9.8-6.88s-7.21,2.03-7.21,5.83c0,3,1.7,5.34,8.02,7.77l3.89,1.54c10.04,4.05,15.06,8.58,15.06,16.76,0,11.66-10.2,17.33-19.84,17.33s-18.22-5.91-20.25-14.33Z"></path><path class="cls-3" d="M160.51,13.91l.76.69c19.88,0,17.73,29.2,17.33,33.37-1.94,20.29-16.12,36.91-35.99,36.91-38.66,0-38.45-73.84-88.06-73.84-24.31,0-44.02,20.21-44.02,45.15,0,16.39,8.53,30.73,21.27,38.64v-.61c-.97-.86-2.26-1.67-2.7-2.88-6.85-6.72-10.55-16.43-10.55-26.92,0-20.39,16.12-36.92,36-36.92,37.87,0,39.15,69.82,88.06,73.84,23.32,1.92,44.2-17.51,47.14-42.06,1.95-16.34-4.91-45.37-29.22-45.37Z"></path><path class="cls-2" d="M101.56,82.75c-.92-1.11-2.56-1.27-3.68-.36s-1.27,2.56-.36,3.68c0,0,.02.01.02.02-.46.32-.91.65-1.36.99-.31.24-.62.48-.93.72l-.92.74c-.61.49-1.21,1-1.8,1.51-.28.24-.54.49-.81.74-.37-.42-.82-.77-1.31-1.04v-.04c.42-1.11.8-2.23,1.15-3.37l.89-2.9c.2-.7.42-1.4.61-2.11.29-1.01.55-2.03.8-3.06,2.3-.27,4.27-2.16,4.33-4.84.03-1.55-.74-3.08-2.02-3.96-1.35-.94-2.87-1.11-4.2-.73-.16-.35-.31-.7-.47-1.05-.34-.71-.68-1.41-1.04-2.11l-.55-1.04c-.19-.34-.37-.69-.56-1.03-.27-.49-.56-.97-.85-1.46,1.21-.69,1.67-2.22,1.02-3.47-.67-1.28-2.24-1.78-3.52-1.11-1.28.67-1.78,2.24-1.11,3.52.67,1.28,2.24,1.78,3.52,1.11,0,0,.02-.01.03-.02.22.51.45,1.03.69,1.53.17.36.34.71.51,1.06l.53,1.05c.36.7.73,1.39,1.11,2.08.18.33.38.65.57.97-1.75.55-3.16,2.08-3.39,4.15-.21,1.86.74,3.74,2.36,4.69.93.55,1.93.74,2.87.67-.37.96-.73,1.93-1.07,2.9-.25.69-.47,1.39-.71,2.08l-.68,2.09c-.44,1.39-.85,2.78-1.25,4.18-.66-.28-1.39-.43-2.15-.39-.38.02-.75.09-1.11.19-.33-.63-.66-1.25-1-1.87l-.58-1.02c-.2-.34-.39-.68-.59-1.02-.29-.48-.59-.96-.89-1.43,1.19-.73,1.6-2.27.91-3.5-.71-1.26-2.3-1.7-3.56-1-.27.15-.49.35-.68.57-.32-.22-.63-.45-.95-.67-.65-.44-1.31-.86-1.98-1.28l-1-.62c-.34-.2-.67-.41-1.01-.6-.48-.28-.98-.55-1.47-.82.69-1.21.3-2.76-.89-3.5-1.23-.76-2.84-.38-3.6.85-.76,1.23-.38,2.84.85,3.6s2.84.38,3.6-.85c0,0,0-.02.01-.03.45.33.91.65,1.37.97.32.22.66.43.98.65l.99.63c.66.42,1.34.82,2.01,1.22.33.19.66.36.99.55-.63.81-.76,1.94-.22,2.89.71,1.26,2.3,1.7,3.56,1,0,0,.02-.01.03-.02.24.51.48,1.01.73,1.51.18.35.36.69.55,1.04l.56,1.03c.33.6.68,1.2,1.03,1.8-1.99.7-3.37,2.64-3.26,4.85,0,.01,0,.03,0,.04-1.04-.02-2.09-.02-3.13,0-.73,0-1.46.03-2.2.05l-2.19.08c-1.46.06-2.92.16-4.38.27-.86.07-1.72.14-2.58.23-.36-.73-1.04-1.28-1.9-1.43-.01,0-.02,0-.03,0,.13-.54.27-1.09.38-1.63.08-.38.16-.77.23-1.15l.22-1.16c.13-.72.24-1.44.35-2.16.58.08,1.19-.02,1.73-.35,1.23-.75,1.62-2.36.87-3.59-.75-1.23-2.36-1.62-3.59-.87-1.23.75-1.62,2.36-.87,3.59,0,0,.01.02.02.03-.5.26-.99.51-1.48.79-.34.19-.68.39-1.02.58l-1.01.6c-.41.25-.82.51-1.23.77.1-1.25-.28-2.56-1.23-3.67-1.03-1.21-2.68-1.84-4.25-1.63-2.18.29-3.69,1.78-4.2,3.58-.27-.1-.54-.21-.81-.3-.74-.25-1.49-.5-2.24-.73l-1.13-.34c-.38-.11-.75-.22-1.13-.32-.54-.15-1.09-.28-1.63-.41.29-1.1-.17-2.21-1.07-2.82.24-.39.47-.79.69-1.19l.39-.7c.13-.24.25-.47.38-.71.18-.34.34-.69.51-1.03.85.43,1.89.12,2.36-.72.48-.86.17-1.95-.69-2.42-.86-.48-1.95-.17-2.42.69-.48.86-.17,1.95.69,2.42,0,0,.01,0,.02,0-.21.32-.42.64-.61.97-.14.23-.27.46-.41.69l-.4.7c-.22.4-.44.8-.65,1.2-.17-.1-.34-.18-.54-.24-1.38-.42-2.84.36-3.26,1.74-.42,1.38.36,2.84,1.74,3.26,1.38.42,2.84-.36,3.26-1.74,0-.01,0-.02,0-.03.52.2,1.05.4,1.57.58.37.13.74.25,1.12.37l1.12.36c.75.23,1.5.45,2.26.66.28.08.57.14.85.21-.26,1.03-.19,2.15.27,3.19.05.12.11.23.17.35-.89.06-1.79.13-2.68.22-1.46.14-2.91.3-4.37.48l-2.18.29c-.72.11-1.45.21-2.17.32-1.03.16-2.06.34-3.09.54-.45-2.56-2.83-4.33-5.43-3.99-1.63.21-2.92,1.23-3.63,2.58-.1.83-.31,1.64-.61,2.4.1,2.93,2.68,5.06,5.51,4.69.79-.1,1.51-.39,2.12-.82.4.51.8,1.03,1.21,1.53l.75.91c.25.3.51.6.77.89.37.42.75.83,1.13,1.24,0,0-.02.01-.03.02-1.12.91-1.3,2.55-.39,3.67.91,1.12,2.55,1.3,3.67.39,1.12-.91,1.3-2.55.39-3.67-.13-.16-.27-.29-.42-.41.29-.35.58-.7.87-1.05l.5-.63c.16-.21.33-.42.49-.64.23-.3.45-.62.67-.93,0,0,.01.01.02.02.77.62,1.89.5,2.51-.26.62-.77.5-1.89-.26-2.51s-1.89-.5-2.51.26c-.6.75-.5,1.83.21,2.46-.26.28-.52.57-.76.86-.18.2-.34.41-.52.62l-.51.62c-.29.36-.57.72-.84,1.09-.9-.61-2.11-.61-3.02.06-.33-.46-.65-.92-1-1.36-.24-.31-.48-.62-.72-.93l-.74-.92c-.41-.5-.83-.99-1.25-1.48,1.33-1.03,2.1-2.71,1.86-4.5,0-.01,0-.03,0-.04,1.04-.06,2.08-.14,3.12-.24.73-.06,1.46-.15,2.18-.22l2.18-.26c1.45-.18,2.9-.39,4.35-.61.92-.14,1.83-.3,2.74-.47.76,1.26,2.03,2.08,3.41,2.31-.08.17-.17.35-.25.52-.33.71-.64,1.43-.95,2.15l-.45,1.09c-.14.36-.29.73-.43,1.09-.2.52-.39,1.05-.57,1.59-1.31-.48-2.78.14-3.32,1.44-.55,1.33.08,2.86,1.41,3.42s2.86-.08,3.42-1.41c.55-1.33-.08-2.86-1.41-3.42-.01,0-.02,0-.03,0,.25-.5.5-1,.73-1.51.17-.36.32-.72.48-1.07l.47-1.08c.31-.72.6-1.45.88-2.18.08-.2.14-.4.21-.59.86.11,1.76,0,2.62-.38,1.6-.71,2.64-2.17,2.88-3.79.48-.28.97-.55,1.44-.84l1-.62c.33-.21.67-.42.99-.63.47-.3.93-.63,1.39-.95.38.56.93.94,1.54,1.09-.15.71-.29,1.43-.41,2.14l-.2,1.16c-.06.39-.13.77-.18,1.16-.08.56-.14,1.11-.21,1.67-1.38-.18-2.67.75-2.91,2.14-.24,1.42.71,2.77,2.13,3.02.94.16,1.84-.21,2.42-.89.34.21.68.42,1.03.62l1.02.59c.34.19.68.39,1.03.57.49.27.99.52,1.5.77-.65,1.23-.22,2.77,1,3.47,1.25.72,2.85.3,3.57-.95s.3-2.85-.95-3.57c-1.25-.72-2.85-.3-3.57.95,0,0,0,.02-.01.03-.46-.31-.93-.63-1.4-.93-.33-.21-.67-.41-1-.62l-1.01-.6c-.33-.2-.67-.38-1.01-.57.2-.3.35-.64.42-1.02.08-.47.02-.93-.14-1.35.84,0,1.67,0,2.51,0,1.46-.02,2.93-.06,4.39-.13l2.19-.12c.73-.05,1.46-.09,2.19-.15,1.04-.08,2.08-.18,3.12-.29.27,2.88,3.01,4.98,6.01,4.28,1.96-.46,3.48-2.19,3.69-4.19.15-1.42-.3-2.71-1.12-3.68.29-.22.6-.42.89-.65.62-.48,1.24-.96,1.85-1.46l.91-.75c.3-.25.6-.5.9-.76.42-.37.84-.75,1.25-1.13.93,1.04,2.52,1.18,3.6.28,1.11-.92,1.27-2.56.36-3.68Z"></path><path class="cls-1" d="M164.26,17.9s.01-.03.02-.04c-.01,0-.03-.02-.04-.02.29-.65.45-1.38.42-2.14-.11-2.58-2.3-4.58-4.88-4.47-.76.03-1.47.25-2.09.6-.34-.52-.68-1.05-1.03-1.56l-.64-.93c-.22-.31-.43-.62-.66-.92-.32-.43-.65-.86-.98-1.28,0,0,.02,0,.03-.01,1.15-.77,1.45-2.33.68-3.48-.77-1.15-2.33-1.45-3.48-.68-1.15.77-1.45,2.33-.68,3.48.11.16.23.3.37.43-.31.31-.62.62-.92.93l-.53.56c-.17.19-.35.38-.52.57-.24.27-.48.55-.71.83,0,0,0-.01-.01-.02-.68-.66-1.76-.64-2.42.04-.66.68-.64,1.76.04,2.42s1.76.64,2.42-.04c.64-.66.63-1.71,0-2.37.27-.25.54-.5.8-.76.18-.18.36-.36.54-.55l.54-.55c.3-.32.6-.64.9-.97.81.66,1.96.76,2.89.19.27.46.55.93.84,1.38.2.32.41.63.61.95l.63.94c.35.51.71,1.02,1.07,1.52-1.36.87-2.23,2.42-2.16,4.15,0,.01,0,.03,0,.04-1-.03-2-.04-3-.03-.7,0-1.4.02-2.11.03l-2.11.07c-1.4.05-2.81.13-4.21.23-.89.06-1.77.14-2.66.22-.62-1.27-1.76-2.16-3.07-2.5.09-.16.19-.32.29-.48.37-.65.73-1.31,1.09-1.98l.52-1c.17-.34.34-.67.5-1.01.24-.48.46-.98.68-1.47,1.21.57,2.66.1,3.29-1.1.64-1.23.16-2.74-1.06-3.38-1.23-.64-2.74-.16-3.38,1.06-.64,1.23-.16,2.74,1.06,3.38,0,0,.02,0,.03.01-.28.46-.56.91-.83,1.38-.19.33-.37.66-.55.99l-.54.99c-.35.66-.69,1.34-1.03,2.01-.09.18-.17.37-.25.55-.82-.18-1.69-.14-2.53.15-1.59.55-2.7,1.86-3.07,3.38-.48.22-.97.45-1.45.68l-1.01.5c-.33.17-.67.34-1,.52-.48.25-.94.52-1.41.79-.31-.57-.81-.98-1.39-1.17.2-.67.39-1.34.58-2.01l.29-1.09c.09-.37.18-.73.27-1.1.12-.52.23-1.05.34-1.58,1.31.29,2.62-.5,2.96-1.8.35-1.34-.45-2.71-1.79-3.06-.89-.23-1.78.05-2.39.64-.31-.23-.62-.46-.93-.68l-.93-.65c-.31-.21-.62-.43-.94-.63-.45-.3-.91-.58-1.37-.86.72-1.13.44-2.63-.66-3.4-1.13-.79-2.7-.52-3.49.61-.8,1.13-.52,2.7.61,3.49s2.7.52,3.49-.61c0,0,0-.02.02-.03.42.34.83.68,1.26,1,.3.23.6.45.91.67l.92.66c.3.21.61.42.92.63-.22.27-.39.58-.48.94-.12.44-.1.89.02,1.3-.8-.08-1.6-.15-2.4-.2-1.4-.1-2.8-.18-4.21-.24l-2.11-.07c-.7-.01-1.4-.04-2.11-.04-1-.01-2.01,0-3.01.02-.02-2.49-1.99-4.55-4.51-4.64-2.58-.09-4.75,1.93-4.84,4.51-.04,1.06.28,2.04.85,2.85-.3.18-.61.36-.9.54-.64.4-1.27.82-1.89,1.24l-.93.64c-.31.22-.62.43-.92.66-.44.32-.86.65-1.29.98-.8-1.07-2.31-1.33-3.42-.57-1.14.78-1.43,2.35-.65,3.49.78,1.14,2.35,1.43,3.49.65,1.14-.78,1.43-2.35.65-3.49,0,0-.01-.02-.02-.02.46-.27.93-.54,1.38-.83.32-.2.63-.41.95-.61l.94-.63c.62-.42,1.24-.85,1.85-1.3.28-.21.56-.43.84-.64.32.43.72.81,1.17,1.11,0,.01-.01.02-.02.03-.58,1.28-1.13,2.57-1.67,3.87l-.79,1.95c-.25.66-.52,1.31-.76,1.97-.36.95-.7,1.9-1.02,2.86-1.8.05-3.48,1.14-4.2,2.91-.97,2.39.18,5.12,2.57,6.1.87.35,1.79.42,2.65.26.12.35.23.7.36,1.04.26.71.54,1.41.82,2.1l.43,1.04c.15.35.3.69.45,1.04.22.49.46.98.69,1.46-1.21.56-1.78,1.98-1.27,3.23.53,1.28,2,1.89,3.28,1.35,1.28-.53,1.89-2,1.36-3.28-.53-1.28-2-1.89-3.28-1.35,0,0-.02.01-.03.01-.17-.51-.34-1.02-.53-1.52-.13-.35-.27-.7-.4-1.06l-.42-1.05c-.28-.7-.58-1.39-.88-2.08-.15-.33-.31-.65-.46-.98,1.45-.32,2.72-1.32,3.33-2.81.97-2.39-.18-5.12-2.57-6.1-.56-.23-1.15-.34-1.72-.34.44-.89.86-1.78,1.26-2.68.29-.64.57-1.29.85-1.93l.82-1.94c.53-1.29,1.05-2.59,1.54-3.89.61.32,1.29.52,2.03.55.37.01.73-.02,1.07-.09.26.63.53,1.25.8,1.87l.47,1.03c.16.34.32.68.48,1.02.23.49.49.96.74,1.44-1.2.6-1.72,2.04-1.16,3.27.57,1.26,2.06,1.82,3.32,1.25.27-.12.5-.29.7-.49.28.24.56.48.85.72.59.47,1.18.93,1.78,1.39l.91.67c.31.22.61.44.92.66.44.31.89.61,1.34.9-.76,1.1-.52,2.62.56,3.42,1.11.83,2.68.6,3.51-.51.83-1.11.6-2.68-.51-3.51-1.11-.83-2.68-.6-3.51.51,0,0-.01.02-.02.03-.41-.35-.81-.7-1.23-1.04-.29-.24-.59-.47-.89-.7l-.9-.69c-.6-.45-1.21-.9-1.82-1.33-.3-.21-.6-.4-.9-.61.67-.72.88-1.8.45-2.75-.57-1.26-2.06-1.82-3.32-1.25,0,0-.02.01-.03.02-.19-.5-.37-1.01-.58-1.5-.14-.35-.29-.69-.44-1.04l-.45-1.03c-.27-.61-.55-1.21-.84-1.8,1.96-.5,3.44-2.24,3.52-4.37,0-.01,0-.03,0-.04,1,.11,1.99.2,2.99.27.7.06,1.4.09,2.1.14l2.1.1c1.4.06,2.81.1,4.21.11.83,0,1.66,0,2.49,0,.28.72.89,1.31,1.69,1.52.01,0,.02,0,.03,0-.17.51-.35,1.02-.5,1.53-.11.36-.21.72-.32,1.08l-.3,1.09c-.18.68-.35,1.36-.52,2.04-.55-.13-1.14-.08-1.68.19-1.24.62-1.74,2.12-1.13,3.36s2.12,1.74,3.36,1.13c1.24-.62,1.74-2.12,1.13-3.36,0,0-.01-.02-.02-.03.5-.21.99-.41,1.48-.63.34-.15.68-.32,1.03-.47l1.02-.49c.42-.2.83-.42,1.24-.63-.13.75-.07,1.54.19,2.31.85,2.48,3.54,3.8,6.02,2.95,1.39-.48,2.41-1.53,2.9-2.8.25.12.5.24.75.35.69.31,1.38.6,2.08.89l1.05.42c.35.13.7.27,1.05.4.5.19,1.02.36,1.53.53-.36,1.02-.02,2.13.79,2.78-.26.36-.51.72-.76,1.08l-.43.64c-.14.22-.28.43-.42.65-.2.31-.38.63-.57.94-.78-.48-1.8-.27-2.31.49-.53.78-.32,1.85.46,2.37.78.53,1.85.32,2.37-.46.53-.78.32-1.85-.46-2.37,0,0-.01,0-.02-.01.23-.29.45-.58.67-.87.15-.21.3-.42.45-.63l.44-.63c.25-.36.48-.72.72-1.09.15.11.31.2.49.27,1.29.52,2.75-.11,3.26-1.39.52-1.29-.11-2.75-1.39-3.26-1.28-.52-2.74.11-3.26,1.39,0,0,0,.02,0,.03-.48-.23-.97-.47-1.46-.69-.34-.16-.69-.3-1.04-.45l-1.04-.43c-.7-.29-1.4-.56-2.1-.82-.26-.1-.53-.18-.79-.28.33-.96.36-2.04,0-3.07-.04-.12-.09-.23-.14-.35.86.02,1.72.02,2.58.02,1.41-.01,2.81-.04,4.21-.1l2.1-.1c.7-.04,1.4-.08,2.1-.13,1-.07,2-.16,3-.26.22,2.48,2.35,4.38,4.86,4.26,1.8-.08,3.32-1.17,4.03-2.71.01,0,.02.02.03.03Z"></path></svg> 