<svg width="10" height="15" viewBox="0 0 10 15" fill="none" xmlns="http://www.w3.org/2000/svg">
<path d="M4.01198 0V1.87266H2.51497C1.15768 1.87266 0.0199601 2.94007 0.0199601 4.21348V5.14981C0.0199601 6.42322 0.898203 7.47191 2.19561 7.79026L7.30539 9.02622C7.58483 9.10112 7.98403 9.56929 7.98403 9.85019V10.7865C7.98403 11.0487 7.76447 11.2547 7.48503 11.2547H2.49501C2.32164 11.254 2.1508 11.2156 1.99601 11.1423V9.38202H0V11.2547C0 11.8914 0.399201 12.4345 0.878243 12.7154C1.33733 13.015 1.91617 13.1273 2.49501 13.1273H3.99202V15H5.98802V13.1273H7.48503C8.86228 13.1273 9.98004 12.0787 9.98004 10.7865V9.85019C9.98004 8.57678 9.1018 7.52809 7.80439 7.20974L2.69461 5.97378C2.41517 5.89888 2.01597 5.43071 2.01597 5.14981V4.21348C2.01597 3.95131 2.23553 3.74532 2.51497 3.74532H7.50499C7.72455 3.74532 7.92415 3.82022 8.00399 3.85768V5.61798H10V3.74532C10 3.10861 9.6008 2.56554 9.12176 2.28464C8.66267 1.98502 8.08383 1.87266 7.50499 1.87266H6.00798V0H4.01198Z" fill="#313131"/>
</svg>
