<svg width="12" height="12" viewBox="0 0 12 12" fill="none" xmlns="http://www.w3.org/2000/svg">
<path opacity="0.3" d="M6.0002 1.19995C3.3482 1.19995 1.2002 3.34795 1.2002 5.99995C1.2002 8.65195 3.3482 10.8 6.0002 10.8C8.6522 10.8 10.8002 8.65195 10.8002 5.99995C10.8002 3.34795 8.6522 1.19995 6.0002 1.19995ZM8.5502 8.48995L5.4002 6.59995V2.99995H6.3002V6.14995L9.0002 7.75195L8.5502 8.48995Z" fill="black"/>
<path d="M5.994 0C2.682 0 0 2.688 0 6C0 9.312 2.682 12 5.994 12C9.312 12 12 9.312 12 6C12 2.688 9.312 0 5.994 0ZM6 10.8C3.348 10.8 1.2 8.652 1.2 6C1.2 3.348 3.348 1.2 6 1.2C8.652 1.2 10.8 3.348 10.8 6C10.8 8.652 8.652 10.8 6 10.8ZM6.3 3H5.4V6.6L8.55 8.49L9 7.752L6.3 6.15V3Z" fill="#313131"/>
</svg>
