<svg width="122" height="122" viewBox="0 0 122 122" fill="none" xmlns="http://www.w3.org/2000/svg">
<path d="M61 0C27.3034 0 0 27.3034 0 61C0 94.6966 27.3034 122 61 122C94.6966 122 122 94.6966 122 61C122 27.3034 94.6966 0 61 0ZM59.6803 30.5C62.9356 30.5 65.5457 33.1394 65.5457 36.3654C65.5457 39.5913 62.9062 42.2308 59.6803 42.2308C56.4543 42.2308 53.8149 39.5913 53.8149 36.3654C53.8149 33.1394 56.425 30.5 59.6803 30.5ZM70.3846 89.1538H51.6154V86.8077H56.3077V51.6154H51.6154V49.2692H65.6923V86.8077H70.3846V89.1538Z" fill="#D1D1DB"/>
</svg>
