<svg width="12" height="15" viewBox="0 0 12 15" fill="none" xmlns="http://www.w3.org/2000/svg">
<path d="M11.9984 3.99445C12.0031 3.96234 11.9953 3.92702 11.9749 3.89491C11.9733 3.8933 11.9717 3.89009 11.9702 3.88849C11.9686 3.88688 11.967 3.88367 11.9655 3.88206C11.9639 3.88046 11.9623 3.87725 11.9607 3.87564L11.956 3.87083C11.956 3.87083 11.956 3.86922 11.9545 3.86922L11.4943 3.39882C11.1394 3.03437 10.783 2.67154 10.428 2.3087C10.0276 1.89931 9.62872 1.49152 9.22984 1.08212L8.37241 0.205534C8.32216 0.154159 8.27348 0.0995726 8.22009 0.049803C8.15884 -0.00799397 8.09132 0.00163886 8.01751 0.00163886H1.20989C0.946069 0.00163886 0.680674 -0.0224432 0.440405 0.114022C0.167159 0.271358 0.00383872 0.571581 0.000697948 0.889465V14.0351C0.000697948 14.0624 -0.000872435 14.088 0.000697948 14.1153C0.0054091 14.5568 0.327338 14.9325 0.756053 14.9887C0.900528 15.008 1.05128 14.9967 1.19733 14.9967H10.8411C11.0232 14.9967 11.2242 15.0144 11.3985 14.955C11.755 14.8346 11.9953 14.4958 12 14.1121V3.99445H11.9984ZM9.63029 12.1872H2.36884C2.19295 12.1872 2.06261 12.0395 2.05476 11.8661C2.04691 11.6927 2.20395 11.545 2.36884 11.545H2.8588V8.54596C2.8588 8.45766 2.8478 8.35009 2.88863 8.26821C2.986 8.07074 3.22627 8.10927 3.40529 8.10927H4.06956C4.13709 8.10927 4.20619 8.11088 4.27371 8.11248C4.28156 8.11248 4.29099 8.11248 4.29884 8.11409C4.30355 8.11409 4.30826 8.11569 4.31297 8.11569C4.31768 8.11569 4.32239 8.1173 4.32711 8.1173C4.33025 8.1173 4.33339 8.1189 4.33653 8.1189C4.34438 8.12051 4.35223 8.12211 4.36008 8.12532H4.36165C4.37265 8.12854 4.38364 8.13335 4.39463 8.13817C4.47315 8.17349 4.52811 8.24252 4.55167 8.33403C4.55638 8.34848 4.56423 8.36614 4.5658 8.3838C4.5658 8.38702 4.56737 8.38862 4.56737 8.39023V8.39183C4.56737 8.39665 4.56737 8.40146 4.56894 8.40789C4.56894 8.40949 4.56737 8.4111 4.56737 8.4127V11.5434H5.21123V11.5257C5.21123 11.4984 5.21437 11.4695 5.21437 11.4422C5.21437 11.4133 5.21594 11.3844 5.21594 11.3555C5.21751 11.2688 5.22065 11.1821 5.22222 11.0971C5.22222 11.073 5.22379 11.0473 5.22379 11.0232C5.22379 11.0023 5.22379 10.9831 5.22537 10.9622V6.62581C5.22537 6.58568 5.22222 6.54715 5.22222 6.50701C5.22222 6.49256 5.22379 6.4765 5.22537 6.46206C5.22694 6.45242 5.22851 6.4444 5.23008 6.43637L5.2395 6.40265C5.24107 6.39944 5.24264 6.39463 5.24421 6.39142L5.24892 6.38178L5.26305 6.35288C5.26462 6.35128 5.26462 6.34807 5.26619 6.34646C5.26934 6.34165 5.27248 6.33522 5.27719 6.33041C5.31959 6.2694 5.38554 6.22766 5.4672 6.21642C5.47506 6.21481 5.48448 6.21481 5.4939 6.21321C5.52217 6.2116 5.552 6.21 5.58027 6.21H5.60069C5.7593 6.20679 5.9179 6.2116 6.07651 6.21481H6.58061C6.60416 6.21481 6.62615 6.2116 6.6497 6.21321C6.67954 6.21481 6.70781 6.21963 6.73293 6.22926C6.7345 6.22926 6.73764 6.23087 6.73921 6.23087C6.75963 6.23729 6.7769 6.24692 6.79418 6.25816C6.80046 6.26298 6.80674 6.26619 6.81145 6.271C6.81773 6.27582 6.82244 6.28064 6.82873 6.28545L6.83658 6.29348L6.84443 6.30151C6.85385 6.31275 6.86328 6.32399 6.87113 6.33683C6.8727 6.34004 6.87584 6.34325 6.87741 6.34646C6.88369 6.35609 6.8884 6.36573 6.89311 6.37697C6.89468 6.38018 6.89625 6.38339 6.89782 6.3882C6.90411 6.40265 6.90882 6.4171 6.91196 6.43316C6.91353 6.43797 6.9151 6.4444 6.91667 6.44921C6.91824 6.45242 6.91824 6.45724 6.91981 6.46045C6.92138 6.47008 6.92295 6.47972 6.92295 6.49095V11.545H7.58879C7.58879 11.3395 7.59821 11.134 7.59821 10.9285V7.3563C7.59821 7.31617 7.59507 7.27764 7.60607 7.2375C7.64847 7.08016 7.78509 7.0336 7.92642 7.0336H8.98329C9.07752 7.0336 9.15918 7.0625 9.21571 7.1203C9.22356 7.12833 9.23141 7.13796 9.23927 7.14759C9.25026 7.16204 9.25968 7.1781 9.26753 7.19576C9.27538 7.21342 9.28167 7.23268 9.28795 7.25195C9.29266 7.26479 9.29423 7.27764 9.2958 7.29208V11.545H9.62872C9.8046 11.545 9.93495 11.6927 9.9428 11.8661C9.95065 12.0395 9.79361 12.1872 9.63029 12.1872ZM8.84981 3.82266H8.64252C8.62996 3.82266 8.61582 3.82106 8.60326 3.82106C8.58442 3.81624 8.56557 3.81303 8.54673 3.80821C8.53102 3.8034 8.46193 3.78895 8.5059 3.79537C8.51061 3.79537 8.51532 3.79697 8.51846 3.79697C8.51218 3.79537 8.50276 3.79216 8.49647 3.78895C8.48077 3.78092 8.46664 3.77289 8.45093 3.76326L8.42738 3.7472C8.42424 3.74239 8.38498 3.71028 8.37713 3.70386C8.37398 3.70065 8.35985 3.6878 8.34729 3.67496C8.34572 3.67175 8.34415 3.66854 8.34101 3.66532L8.3363 3.65569C8.33001 3.64766 8.3253 3.63803 8.31902 3.63C8.31588 3.62519 8.30332 3.60432 8.29389 3.58666C8.29232 3.58345 8.29075 3.57863 8.28918 3.57221C8.28761 3.56418 8.28447 3.55776 8.28133 3.54973C8.27976 3.54652 8.27976 3.54491 8.27819 3.5417C8.27191 3.52244 8.27819 3.50317 8.26249 3.48391V3.46304C8.26092 3.45501 8.25935 3.45019 8.25935 3.44698C8.25935 3.44859 8.26092 3.45501 8.26249 3.45982C8.26249 3.44859 8.26092 3.43895 8.26092 3.43253C8.26092 3.40524 8.26092 3.37955 8.26249 3.35226V1.7516C8.26249 1.53486 8.26563 1.31813 8.2672 1.10139L8.99586 1.84633L10.929 3.82266H8.84981Z" fill="#313131"/>
</svg>
