<svg width="12" height="14" viewBox="0 0 12 14" fill="none" xmlns="http://www.w3.org/2000/svg">
<path d="M11.25 1.4H9V0.7C9 0.514348 8.92098 0.336301 8.78033 0.205025C8.63968 0.0737498 8.44891 0 8.25 0H3.75C3.55109 0 3.36032 0.0737498 3.21967 0.205025C3.07902 0.336301 3 0.514348 3 0.7V1.4H0.75C0.551088 1.4 0.360322 1.47375 0.21967 1.60503C0.0790178 1.7363 0 1.91435 0 2.1V13.3C0 13.4857 0.0790178 13.6637 0.21967 13.795C0.360322 13.9263 0.551088 14 0.75 14H11.25C11.4489 14 11.6397 13.9263 11.7803 13.795C11.921 13.6637 12 13.4857 12 13.3V2.1C12 1.91435 11.921 1.7363 11.7803 1.60503C11.6397 1.47375 11.4489 1.4 11.25 1.4ZM4.5 1.4H7.5V2.8H4.5V1.4ZM3 5.6H6.75C6.94891 5.6 7.13968 5.67375 7.28033 5.80503C7.42098 5.9363 7.5 6.11435 7.5 6.3C7.5 6.48565 7.42098 6.6637 7.28033 6.79497C7.13968 6.92625 6.94891 7 6.75 7H3C2.80109 7 2.61032 6.92625 2.46967 6.79497C2.32902 6.6637 2.25 6.48565 2.25 6.3C2.25 6.11435 2.32902 5.9363 2.46967 5.80503C2.61032 5.67375 2.80109 5.6 3 5.6ZM9 11.2H3C2.80109 11.2 2.61032 11.1263 2.46967 10.995C2.32902 10.8637 2.25 10.6857 2.25 10.5C2.25 10.3143 2.32902 10.1363 2.46967 10.005C2.61032 9.87375 2.80109 9.8 3 9.8H9C9.19891 9.8 9.38968 9.87375 9.53033 10.005C9.67098 10.1363 9.75 10.3143 9.75 10.5C9.75 10.6857 9.67098 10.8637 9.53033 10.995C9.38968 11.1263 9.19891 11.2 9 11.2ZM9 9.1H3C2.80109 9.1 2.61032 9.02625 2.46967 8.89497C2.32902 8.7637 2.25 8.58565 2.25 8.4C2.25 8.21435 2.32902 8.0363 2.46967 7.90503C2.61032 7.77375 2.80109 7.7 3 7.7H9C9.19891 7.7 9.38968 7.77375 9.53033 7.90503C9.67098 8.0363 9.75 8.21435 9.75 8.4C9.75 8.58565 9.67098 8.7637 9.53033 8.89497C9.38968 9.02625 9.19891 9.1 9 9.1Z" fill="#313131"/>
</svg>
