<svg width="12" height="12" viewBox="0 0 12 12" fill="none" xmlns="http://www.w3.org/2000/svg">
<path d="M11.4 0H0.6C0.44087 0 0.288258 0.0632141 0.175736 0.175736C0.0632141 0.288258 0 0.44087 0 0.6V11.4C0 11.5591 0.0632141 11.7117 0.175736 11.8243C0.288258 11.9368 0.44087 12 0.6 12H11.4C11.5591 12 11.7117 11.9368 11.8243 11.8243C11.9368 11.7117 12 11.5591 12 11.4V0.6C12 0.44087 11.9368 0.288258 11.8243 0.175736C11.7117 0.0632141 11.5591 0 11.4 0ZM9 6.6H6.6V9C6.6 9.15913 6.53679 9.31174 6.42426 9.42426C6.31174 9.53679 6.15913 9.6 6 9.6C5.84087 9.6 5.68826 9.53679 5.57574 9.42426C5.46321 9.31174 5.4 9.15913 5.4 9V6.6H3C2.84087 6.6 2.68826 6.53679 2.57574 6.42426C2.46321 6.31174 2.4 6.15913 2.4 6C2.4 5.84087 2.46321 5.68826 2.57574 5.57574C2.68826 5.46321 2.84087 5.4 3 5.4H5.4V3C5.4 2.84087 5.46321 2.68826 5.57574 2.57574C5.68826 2.46321 5.84087 2.4 6 2.4C6.15913 2.4 6.31174 2.46321 6.42426 2.57574C6.53679 2.68826 6.6 2.84087 6.6 3V5.4H9C9.15913 5.4 9.31174 5.46321 9.42426 5.57574C9.53679 5.68826 9.6 5.84087 9.6 6C9.6 6.15913 9.53679 6.31174 9.42426 6.42426C9.31174 6.53679 9.15913 6.6 9 6.6Z" fill="#313131"/>
</svg>
