<svg width="12" height="12" viewBox="0 0 12 12" fill="none" xmlns="http://www.w3.org/2000/svg">
<path d="M11.6698 11.6698C11.2296 12.1101 10.5161 12.1101 10.0759 11.6698L8.08695 9.68087C7.26924 10.2054 6.30266 10.518 5.25901 10.518C2.35474 10.518 0 8.16357 0 5.25898C0 2.35439 2.35474 0 5.25901 0C8.16364 0 10.518 2.35435 10.518 5.25898C10.518 6.30228 10.2051 7.26924 9.68087 8.08733L11.6698 10.0763C12.1101 10.5165 12.1101 11.2296 11.6698 11.6698ZM5.25901 1.50256C3.18453 1.50256 1.50258 3.18413 1.50258 5.25896C1.50258 7.33379 3.18455 9.01538 5.25901 9.01538C7.33381 9.01538 9.01541 7.33379 9.01541 5.25896C9.01541 3.18413 7.33381 1.50256 5.25901 1.50256Z" fill="#313131"/>
</svg>
