<svg width="18" height="18" viewBox="0 0 18 18" fill="none" xmlns="http://www.w3.org/2000/svg">
<path fill-rule="evenodd" clip-rule="evenodd" d="M9.69095 2.7658V3.45742C9.6785 4.07081 8.68738 4.42043 8.37406 3.75027C8.33234 3.65822 8.3102 3.55849 8.30905 3.45742V2.7658H6.23689C5.70501 2.74018 5.34882 2.0444 5.7147 1.6214C5.84058 1.47601 5.94225 1.39709 6.23689 1.38255C6.92715 1.38255 7.6181 1.38047 8.30905 1.37632V0.691622C8.30722 0.61788 8.31894 0.54443 8.34363 0.474928C8.43493 0.19731 8.70813 0 9.01383 0C9.38248 0.0145386 9.68265 0.290772 9.69095 0.691622V1.36801C11.0722 1.35971 12.4541 1.35209 13.836 1.35901V0.691622C13.8429 0.321926 14.1126 0.0159232 14.5131 0H14.5401C14.9094 0.0145386 15.2096 0.290772 15.2172 0.691622V1.37147L15.9593 1.38324C17.0182 1.41648 17.9602 2.32825 17.9803 3.4318C18.0066 7.59746 18.0066 11.7638 17.9803 15.9302C17.9609 16.9998 17.0362 17.9579 15.9337 17.9787C11.3115 18.0071 6.68853 18.0071 2.06628 17.9787C1.00184 17.9586 0.0404611 17.0517 0.0197118 15.9302C-0.00657061 11.7638 -0.00657061 7.59746 0.0197118 3.4318C0.0390778 2.35456 0.961037 1.39017 2.0898 1.38255H2.78282V0.691622C2.78064 0.617857 2.79237 0.544342 2.81741 0.474928C2.9087 0.19731 3.1819 0 3.48692 0C3.85625 0.0145386 4.15643 0.290772 4.16403 0.691622V3.45742C4.15228 4.07012 3.18951 4.4135 2.8596 3.77519C2.80991 3.67659 2.78363 3.56785 2.78282 3.45742V2.76303C2.54674 2.76118 2.31064 2.7621 2.07458 2.7658C1.72392 2.77687 1.41199 3.08426 1.40092 3.44011C1.3238 7.6001 1.3238 11.7612 1.40092 15.9212C1.41199 16.2728 1.71908 16.5844 2.07458 16.5955C6.69113 16.6813 11.3089 16.6813 15.9254 16.5955C16.2761 16.5844 16.588 16.277 16.5991 15.9212C16.6758 11.7617 16.6758 7.59953 16.5991 3.44011C16.5886 3.26136 16.5117 3.09302 16.3834 2.96821C16.2551 2.84341 16.0849 2.7712 15.9061 2.7658H15.2172V3.45742C15.2054 4.06458 14.2399 4.40727 13.9127 3.77519C13.8634 3.67648 13.8371 3.5678 13.836 3.45742V2.7658H9.69095ZM3.47308 13.8297C3.56571 13.8267 3.65797 13.8425 3.7444 13.8759C3.83084 13.9094 3.90967 13.9599 3.97622 14.0244C4.04278 14.089 4.0957 14.1662 4.13183 14.2517C4.16797 14.3371 4.18659 14.4289 4.18659 14.5216C4.18659 14.6144 4.16797 14.7062 4.13183 14.7916C4.0957 14.877 4.04278 14.9543 3.97622 15.0189C3.90967 15.0834 3.83084 15.1339 3.7444 15.1674C3.65797 15.2008 3.56571 15.2165 3.47308 15.2136C3.29352 15.2079 3.12322 15.1325 2.99822 15.0034C2.87321 14.8742 2.80331 14.7015 2.80331 14.5216C2.80331 14.3418 2.87321 14.169 2.99822 14.0399C3.12322 13.9108 3.29352 13.8354 3.47308 13.8297ZM6.23689 13.8297C6.33023 13.8256 6.42343 13.8405 6.51087 13.8734C6.5983 13.9064 6.67816 13.9567 6.74562 14.0214C6.81308 14.0861 6.86675 14.1639 6.90338 14.2499C6.94001 14.3359 6.95885 14.4285 6.95875 14.522C6.95866 14.6155 6.93964 14.7081 6.90283 14.794C6.86603 14.88 6.81221 14.9576 6.74462 15.0222C6.67703 15.0867 6.59707 15.1369 6.50957 15.1697C6.42207 15.2025 6.32884 15.2172 6.2355 15.2129C6.05761 15.2048 5.88971 15.1283 5.76676 14.9993C5.64381 14.8703 5.57529 14.6989 5.57547 14.5206C5.57565 14.3424 5.64451 14.1711 5.76771 14.0423C5.89092 13.9136 6.05897 13.8375 6.23689 13.8297ZM9 13.8297C9.1779 13.8376 9.34588 13.914 9.46896 14.0428C9.59203 14.1717 9.66072 14.343 9.66072 14.5213C9.66072 14.6995 9.59203 14.8709 9.46896 14.9998C9.34588 15.1286 9.1779 15.2049 9 15.2129C8.8221 15.2049 8.65412 15.1286 8.53104 14.9998C8.40797 14.8709 8.33928 14.6995 8.33928 14.5213C8.33928 14.343 8.40797 14.1717 8.53104 14.0428C8.65412 13.914 8.8221 13.8376 9 13.8297ZM3.47308 11.0639C3.56561 11.0609 3.65779 11.0767 3.74414 11.1101C3.83048 11.1435 3.90924 11.1939 3.97573 11.2584C4.04222 11.3229 4.09508 11.4001 4.13119 11.4854C4.16729 11.5708 4.18589 11.6625 4.18589 11.7552C4.18589 11.8478 4.16729 11.9395 4.13119 12.0249C4.09508 12.1102 4.04222 12.1874 3.97573 12.2519C3.90924 12.3164 3.83048 12.3668 3.74414 12.4002C3.65779 12.4336 3.56561 12.4494 3.47308 12.4464C3.29371 12.4407 3.12358 12.3654 2.9987 12.2364C2.87382 12.1074 2.80399 11.9348 2.80399 11.7552C2.80399 11.5755 2.87382 11.4029 2.9987 11.2739C3.12358 11.1449 3.29371 11.0696 3.47308 11.0639ZM6.23689 11.0639C6.42005 11.0639 6.59571 11.1367 6.72522 11.2663C6.85473 11.396 6.92749 11.5718 6.92749 11.7552C6.92749 11.9385 6.85473 12.1143 6.72522 12.244C6.59571 12.3736 6.42005 12.4464 6.23689 12.4464C6.05373 12.4464 5.87807 12.3736 5.74856 12.244C5.61904 12.1143 5.54628 11.9385 5.54628 11.7552C5.54628 11.5718 5.61904 11.396 5.74856 11.2663C5.87807 11.1367 6.05373 11.0639 6.23689 11.0639ZM9 11.0639C9.09262 11.0609 9.18489 11.0767 9.27132 11.1101C9.35775 11.1436 9.43659 11.1941 9.50314 11.2586C9.56969 11.3232 9.62261 11.4004 9.65875 11.4859C9.69489 11.5713 9.71351 11.6631 9.71351 11.7558C9.71351 11.8486 9.69489 11.9404 9.65875 12.0258C9.62261 12.1112 9.56969 12.1885 9.50314 12.2531C9.43659 12.3176 9.35775 12.3681 9.27132 12.4016C9.18489 12.435 9.09262 12.4507 9 12.4478C8.82044 12.4421 8.65014 12.3667 8.52513 12.2376C8.40013 12.1084 8.33023 11.9357 8.33023 11.7558C8.33023 11.576 8.40013 11.4033 8.52513 11.2741C8.65014 11.145 8.82044 11.0696 9 11.0639ZM11.7631 11.0639C11.8557 11.0609 11.948 11.0767 12.0344 11.1101C12.1209 11.1436 12.1997 11.1941 12.2663 11.2586C12.3328 11.3232 12.3857 11.4004 12.4219 11.4859C12.458 11.5713 12.4766 11.6631 12.4766 11.7558C12.4766 11.8486 12.458 11.9404 12.4219 12.0258C12.3857 12.1112 12.3328 12.1885 12.2663 12.2531C12.1997 12.3176 12.1209 12.3681 12.0344 12.4016C11.948 12.435 11.8557 12.4507 11.7631 12.4478C11.5836 12.4421 11.4133 12.3667 11.2882 12.2376C11.1632 12.1084 11.0933 11.9357 11.0933 11.7558C11.0933 11.576 11.1632 11.4033 11.2882 11.2741C11.4133 11.145 11.5836 11.0696 11.7631 11.0639ZM14.5262 11.0639C14.6188 11.0609 14.7109 11.0767 14.7973 11.1101C14.8836 11.1435 14.9624 11.1939 15.0289 11.2584C15.0954 11.3229 15.1482 11.4001 15.1843 11.4854C15.2204 11.5708 15.239 11.6625 15.239 11.7552C15.239 11.8478 15.2204 11.9395 15.1843 12.0249C15.1482 12.1102 15.0954 12.1874 15.0289 12.2519C14.9624 12.3164 14.8836 12.3668 14.7973 12.4002C14.7109 12.4336 14.6188 12.4494 14.5262 12.4464C14.3468 12.4407 14.1767 12.3654 14.0518 12.2364C13.927 12.1074 13.8571 11.9348 13.8571 11.7552C13.8571 11.5755 13.927 11.4029 14.0518 11.2739C14.1767 11.1449 14.3468 11.0696 14.5262 11.0639ZM6.23689 8.29808C6.32753 8.29808 6.41729 8.31595 6.50104 8.35067C6.58478 8.3854 6.66088 8.43629 6.72497 8.50045C6.78907 8.56461 6.83991 8.64077 6.8746 8.7246C6.90929 8.80843 6.92715 8.89828 6.92715 8.98901C6.92715 9.07974 6.90929 9.16959 6.8746 9.25342C6.83991 9.33724 6.78907 9.41341 6.72497 9.47757C6.66088 9.54173 6.58478 9.59262 6.50104 9.62735C6.41729 9.66207 6.32753 9.67994 6.23689 9.67994C6.05382 9.67994 5.87825 9.60715 5.7488 9.47757C5.61935 9.348 5.54663 9.17226 5.54663 8.98901C5.54663 8.80576 5.61935 8.63002 5.7488 8.50045C5.87825 8.37087 6.05382 8.29808 6.23689 8.29808ZM9 8.29808C9.09334 8.2939 9.18655 8.30869 9.27402 8.34156C9.3615 8.37443 9.4414 8.4247 9.50893 8.48934C9.57646 8.55397 9.6302 8.63163 9.66692 8.71763C9.70364 8.80363 9.72257 8.89618 9.72257 8.9897C9.72257 9.08322 9.70364 9.17578 9.66692 9.26177C9.6302 9.34777 9.57646 9.42543 9.50893 9.49007C9.4414 9.5547 9.3615 9.60497 9.27402 9.63784C9.18655 9.67071 9.09334 9.6855 9 9.68132C8.8221 9.67335 8.65412 9.597 8.53104 9.46817C8.40797 9.33934 8.33928 9.16796 8.33928 8.9897C8.33928 8.81145 8.40797 8.64006 8.53104 8.51123C8.65412 8.3824 8.8221 8.30605 9 8.29808ZM11.7631 8.29808C11.8565 8.2939 11.9497 8.30869 12.0371 8.34156C12.1246 8.37443 12.2045 8.4247 12.272 8.48934C12.3396 8.55397 12.3933 8.63163 12.43 8.71763C12.4667 8.80363 12.4857 8.89618 12.4857 8.9897C12.4857 9.08322 12.4667 9.17578 12.43 9.26177C12.3933 9.34777 12.3396 9.42543 12.272 9.49007C12.2045 9.5547 12.1246 9.60497 12.0371 9.63784C11.9497 9.67071 11.8565 9.6855 11.7631 9.68132C11.5852 9.67335 11.4172 9.597 11.2942 9.46817C11.1711 9.33934 11.1024 9.16796 11.1024 8.9897C11.1024 8.81145 11.1711 8.64006 11.2942 8.51123C11.4172 8.3824 11.5852 8.30605 11.7631 8.29808ZM14.5262 8.29808C14.7094 8.29799 14.8851 8.37073 15.0147 8.5003C15.1442 8.62988 15.2171 8.80567 15.2172 8.98901C15.2173 9.17235 15.1446 9.34821 15.0151 9.47792C14.8857 9.60762 14.7101 9.68054 14.5269 9.68063C14.4362 9.68068 14.3464 9.66284 14.2626 9.62814C14.1788 9.59344 14.1026 9.54256 14.0385 9.4784C13.9743 9.41425 13.9234 9.33807 13.8887 9.25422C13.8539 9.17036 13.836 9.08048 13.836 8.9897C13.8359 8.89892 13.8537 8.80902 13.8884 8.72514C13.9231 8.64125 13.9739 8.56502 14.038 8.50079C14.1021 8.43657 14.1782 8.38561 14.262 8.35083C14.3457 8.31605 14.4355 8.29813 14.5262 8.29808Z" fill="#255AA5"/>
</svg>
